<svg width="743" height="657" viewBox="0 0 743 657" fill="none" xmlns="http://www.w3.org/2000/svg">
<g clip-path="url(#clip0_140_25)">
<path d="M371.373 656.657C552.691 656.657 699.678 509.67 699.678 328.352C699.678 147.034 552.691 0.046875 371.373 0.046875C190.055 0.046875 43.068 147.034 43.068 328.352C43.068 509.67 190.055 656.657 371.373 656.657Z" fill="white"/>
<path opacity="0.1" d="M371.373 656.657C552.691 656.657 699.678 509.67 699.678 328.352C699.678 147.034 552.691 0.046875 371.373 0.046875C190.055 0.046875 43.068 147.034 43.068 328.352C43.068 509.67 190.055 656.657 371.373 656.657Z" fill="#E11D48"/>
<path d="M158.006 439.862L1 439.386L1.646 226.096L110.212 226.425L158.505 275.012L158.006 439.862Z" fill="white"/>
<path opacity="0.3" d="M110.212 226.424L110.065 274.864L158.505 275.011L110.212 226.424Z" fill="#E11D48"/>
<path d="M159.493 274.952C159.487 274.864 159.47 274.778 159.442 274.695C159.431 274.663 159.423 274.632 159.409 274.6C159.362 274.491 159.296 274.392 159.214 274.307L110.921 225.72C110.836 225.636 110.737 225.568 110.628 225.52C110.598 225.507 110.567 225.495 110.535 225.486C110.451 225.456 110.364 225.439 110.275 225.434C110.254 225.434 110.235 225.421 110.214 225.421L1.649 225.096C1.38378 225.096 1.12943 225.201 0.941893 225.389C0.754357 225.576 0.649 225.83 0.649 226.096L0 439.383C0 439.648 0.105357 439.902 0.292893 440.09C0.48043 440.277 0.734784 440.383 1 440.383L158 440.862C158.265 440.862 158.52 440.756 158.707 440.569C158.895 440.381 159 440.127 159 439.862L159.5 275.012C159.505 274.993 159.494 274.974 159.493 274.952ZM111.2 228.843L133.5 251.27L156.094 274.002L111.068 273.865L111.2 228.843ZM2 438.389L2.64 227.099L109.205 227.422L109.062 274.862C109.062 275.127 109.167 275.381 109.355 275.569C109.542 275.756 109.797 275.862 110.062 275.862L157.502 276.006L157.009 438.856L2 438.389Z" fill="#262626"/>
<path d="M478.084 431.327L263.981 430.678L264.862 139.822L412.909 140.271L478.765 206.527L478.084 431.327Z" fill="white"/>
<path opacity="0.3" d="M412.909 140.27L412.709 206.326L478.765 206.526L412.909 140.27Z" fill="#E11D48"/>
<path d="M479.753 206.466C479.747 206.379 479.731 206.293 479.703 206.21C479.692 206.177 479.683 206.146 479.669 206.11C479.622 206.002 479.557 205.903 479.475 205.817L413.619 139.561C413.534 139.478 413.435 139.41 413.326 139.361C413.295 139.347 413.265 139.339 413.233 139.328C413.149 139.299 413.062 139.282 412.973 139.275C412.952 139.275 412.933 139.263 412.912 139.263L264.865 138.814C264.6 138.814 264.345 138.92 264.158 139.107C263.97 139.295 263.865 139.549 263.865 139.814L262.984 430.67C262.984 430.936 263.089 431.19 263.277 431.378C263.464 431.565 263.719 431.67 263.984 431.67L478.084 432.319C478.349 432.319 478.604 432.214 478.791 432.027C478.979 431.839 479.084 431.585 479.084 431.319L479.765 206.519C479.765 206.507 479.754 206.488 479.753 206.466ZM413.9 142.687L476.352 205.519L413.71 205.329L413.9 142.687ZM264.984 429.68L265.859 140.824L411.906 141.267L411.706 206.323C411.706 206.589 411.811 206.843 411.999 207.031C412.186 207.218 412.441 207.323 412.706 207.323L477.762 207.523L477.087 430.323L264.984 429.68Z" fill="#262626"/>
<path d="M741.247 439.862L584.241 439.386L584.887 226.096L693.453 226.425L741.746 275.012L741.247 439.862Z" fill="white"/>
<path opacity="0.3" d="M693.453 226.426L693.306 274.866L741.746 275.013L693.453 226.426Z" fill="#E11D48"/>
<path d="M742.734 274.952C742.729 274.864 742.712 274.778 742.684 274.695C742.673 274.663 742.664 274.632 742.65 274.6C742.603 274.491 742.538 274.392 742.456 274.307L694.162 225.72C694.077 225.636 693.979 225.568 693.87 225.52C693.839 225.506 693.808 225.497 693.776 225.486C693.692 225.457 693.605 225.439 693.517 225.434C693.496 225.434 693.477 225.421 693.456 225.421L584.89 225.092C584.625 225.092 584.37 225.197 584.183 225.385C583.995 225.572 583.89 225.827 583.89 226.092L583.244 439.382C583.244 439.647 583.349 439.901 583.537 440.089C583.724 440.276 583.979 440.382 584.244 440.382L741.25 440.858C741.515 440.858 741.77 440.752 741.957 440.565C742.145 440.377 742.25 440.123 742.25 439.858L742.75 275.008C742.746 274.993 742.735 274.974 742.734 274.952ZM694.445 228.843L716.737 251.27L739.335 274.002L694.309 273.865L694.445 228.843ZM585.245 438.389L585.885 227.099L692.451 227.422L692.307 274.862C692.307 275.127 692.412 275.381 692.6 275.569C692.787 275.756 693.042 275.862 693.307 275.862L740.747 276.006L740.254 438.856L585.245 438.389Z" fill="#262626"/>
<path d="M317.896 309.318C326.174 309.318 332.884 302.607 332.884 294.33C332.884 286.052 326.174 279.342 317.896 279.342C309.618 279.342 302.908 286.052 302.908 294.33C302.908 302.607 309.618 309.318 317.896 309.318Z" fill="#292A2E"/>
<path d="M420.668 309.318C428.946 309.318 435.656 302.607 435.656 294.33C435.656 286.052 428.946 279.342 420.668 279.342C412.39 279.342 405.68 286.052 405.68 294.33C405.68 302.607 412.39 309.318 420.668 309.318Z" fill="#292A2E"/>
<path d="M389.376 335.779H349.188C348.923 335.779 348.668 335.674 348.481 335.486C348.293 335.299 348.188 335.045 348.188 334.779C348.188 334.514 348.293 334.26 348.481 334.072C348.668 333.885 348.923 333.779 349.188 333.779H389.376C389.641 333.779 389.896 333.885 390.083 334.072C390.271 334.26 390.376 334.514 390.376 334.779C390.376 335.045 390.271 335.299 390.083 335.486C389.896 335.674 389.641 335.779 389.376 335.779Z" fill="#262626"/>
<path d="M302.435 337.203C309.819 337.203 315.805 334.052 315.805 330.166C315.805 326.279 309.819 323.129 302.435 323.129C295.051 323.129 289.065 326.279 289.065 330.166C289.065 334.052 295.051 337.203 302.435 337.203Z" fill="white"/>
<path d="M436.129 337.203C443.513 337.203 449.499 334.052 449.499 330.166C449.499 326.279 443.513 323.129 436.129 323.129C428.745 323.129 422.759 326.279 422.759 330.166C422.759 334.052 428.745 337.203 436.129 337.203Z" fill="white"/>
<g opacity="0.4">
<path d="M302.435 337.203C309.819 337.203 315.805 334.052 315.805 330.166C315.805 326.279 309.819 323.129 302.435 323.129C295.051 323.129 289.065 326.279 289.065 330.166C289.065 334.052 295.051 337.203 302.435 337.203Z" fill="#E11D48"/>
<path d="M436.129 337.203C443.513 337.203 449.499 334.052 449.499 330.166C449.499 326.279 443.513 323.129 436.129 323.129C428.745 323.129 422.759 326.279 422.759 330.166C422.759 334.052 428.745 337.203 436.129 337.203Z" fill="#E11D48"/>
</g>
<path d="M479.087 208.91C453.566 179.609 417.452 161.646 378.688 158.971C339.923 156.296 301.684 169.129 272.381 194.647C223.425 237.284 208.381 308.17 235.804 367.047C241.31 378.844 248.371 389.852 256.797 399.777L258.597 401.91L124.405 544.321C121.951 546.963 120.641 550.469 120.762 554.073C120.882 557.677 122.423 561.087 125.047 563.56C127.672 566.033 131.168 567.368 134.773 567.273C138.378 567.179 141.799 565.663 144.291 563.056L278.45 420.667L280.691 422.345C309.642 444.061 345.606 454.293 381.653 451.07C417.7 447.848 451.279 431.398 475.919 404.89C500.559 378.383 514.516 343.694 515.102 307.509C515.688 271.323 502.86 236.2 479.091 208.91H479.087ZM487.5 313.338C485.423 343.425 472.017 371.606 449.986 392.202C427.955 412.798 398.936 424.278 368.777 424.327C365.992 424.327 363.198 424.227 360.395 424.027C340.818 422.698 321.872 416.558 305.237 406.153C288.601 395.748 274.79 381.399 265.029 364.378C255.267 347.356 249.857 328.189 249.277 308.576C248.698 288.963 252.967 269.51 261.707 251.942C270.446 234.374 283.386 219.235 299.378 207.865C315.37 196.496 333.921 189.249 353.385 186.767C372.849 184.284 392.624 186.643 410.958 193.634C429.292 200.625 445.618 212.033 458.487 226.845C468.797 238.63 476.669 252.342 481.649 267.188C486.629 282.033 488.618 297.719 487.5 313.338Z" fill="#E11D48"/>
</g>
<defs>
<clipPath id="clip0_140_25">
<rect width="742.746" height="656.701" fill="white"/>
</clipPath>
</defs>
</svg>
