<svg width="829" height="581" viewBox="0 0 829 581" fill="none" xmlns="http://www.w3.org/2000/svg">
<g clip-path="url(#clip0_141_25)">
<path d="M184.995 473.707L760.886 473.707C775.028 473.707 786.493 462.242 786.493 448.1V26.46C786.493 12.3177 775.028 0.853027 760.886 0.853027L184.995 0.853027C170.853 0.853027 159.388 12.3177 159.388 26.46V448.1C159.388 462.242 170.853 473.707 184.995 473.707Z" fill="white"/>
<g filter="url(#filter0_d_141_25)">
<path d="M158.534 448.1V26.461C158.542 19.4447 161.333 12.7181 166.295 7.75725C171.257 2.79643 177.984 0.00661693 185 0L760.886 0C767.901 0.00794024 774.627 2.79834 779.588 7.75902C784.549 12.7197 787.339 19.4455 787.347 26.461V448.1C787.339 455.115 784.548 461.841 779.588 466.801C774.627 471.762 767.901 474.552 760.886 474.56H185C177.984 474.554 171.257 471.764 166.295 466.803C161.333 461.843 158.542 455.116 158.534 448.1ZM185 1.707C178.437 1.71441 172.145 4.32479 167.504 8.96546C162.864 13.6061 160.253 19.8981 160.246 26.461V448.1C160.253 454.663 162.864 460.955 167.504 465.596C172.145 470.236 178.437 472.847 185 472.854H760.886C767.449 472.847 773.741 470.236 778.381 465.595C783.022 460.955 785.632 454.663 785.639 448.1V26.461C785.632 19.8982 783.022 13.6062 778.381 8.96552C773.741 4.32483 767.449 1.71441 760.886 1.707H185Z" fill="#E11D48"/>
</g>
<path d="M721.913 275.452H338.1C337.679 275.452 337.275 275.285 336.978 274.987C336.68 274.69 336.513 274.286 336.513 273.865V54.8253C336.513 54.6169 336.554 54.4105 336.634 54.218C336.714 54.0254 336.83 53.8505 336.978 53.7031C337.125 53.5557 337.3 53.4388 337.493 53.3591C337.685 53.2793 337.892 53.2383 338.1 53.2383C338.308 53.2383 338.515 53.2793 338.707 53.3591C338.9 53.4388 339.075 53.5557 339.222 53.7031C339.37 53.8505 339.486 54.0254 339.566 54.218C339.646 54.4105 339.687 54.6169 339.687 54.8253V272.278H721.913C722.334 272.278 722.738 272.445 723.035 272.743C723.333 273.041 723.5 273.444 723.5 273.865C723.5 274.286 723.333 274.69 723.035 274.987C722.738 275.285 722.334 275.452 721.913 275.452Z" fill="#BC0C0C"/>
<path opacity="0.2" d="M364.78 242.67H365.644C378.093 242.67 390.298 239.218 400.902 232.697C411.507 226.177 420.095 216.843 425.713 205.733L474.938 108.385C499.913 58.9954 570.507 59.1744 595.23 108.685L643.53 205.422C649.117 216.612 657.712 226.024 668.349 232.602C678.986 239.181 691.246 242.665 703.753 242.665" fill="#BC0C0C"/>
<path d="M703.755 244.053C690.983 244.096 678.454 240.558 667.591 233.84C656.728 227.122 647.966 217.493 642.3 206.046L594 109.309C588.65 98.2871 580.283 89.0092 569.872 82.5521C559.46 76.095 547.43 72.7238 535.179 72.8297H534.998C522.778 72.6947 510.77 76.0204 500.361 82.4226C489.952 88.8248 481.567 98.042 476.176 109.009L426.951 206.357C421.249 217.719 412.492 227.266 401.663 233.926C390.835 240.585 378.364 244.094 365.651 244.057H364.788C364.603 244.062 364.42 244.03 364.248 243.962C364.076 243.895 363.919 243.794 363.787 243.666C363.655 243.537 363.549 243.383 363.478 243.213C363.406 243.043 363.369 242.86 363.369 242.675C363.369 242.491 363.406 242.308 363.478 242.138C363.549 241.968 363.655 241.814 363.787 241.685C363.919 241.556 364.076 241.455 364.248 241.388C364.42 241.321 364.603 241.289 364.788 241.294H365.651C377.852 241.33 389.821 237.964 400.215 231.573C410.608 225.182 419.014 216.019 424.487 205.115L473.712 107.767C479.412 96.4028 488.168 86.8541 498.998 80.1941C509.827 73.5341 522.299 70.0269 535.012 70.0667H535.191C547.934 70.058 560.425 73.6124 571.255 80.3284C582.084 87.0445 590.82 96.6547 596.476 108.074L644.776 204.811C650.214 215.798 658.624 225.04 669.051 231.488C679.478 237.937 691.504 241.332 703.763 241.29C704.123 241.299 704.465 241.449 704.716 241.707C704.967 241.965 705.108 242.311 705.108 242.671C705.108 243.031 704.967 243.377 704.716 243.635C704.465 243.893 704.123 244.043 703.763 244.053H703.755Z" fill="#BC0C0C"/>
<g opacity="0.2">
<path d="M324.886 326.951C327.912 322.014 331.622 317.531 335.905 313.634C337.84 311.876 340.105 309.562 342.673 308.8C343.573 308.573 344.516 308.576 345.415 308.81C346.313 309.044 347.138 309.501 347.813 310.139C351.065 312.776 353.185 316.609 356.858 318.77C360.329 320.811 364.365 320.681 368.095 319.477C372.121 318.177 375.795 315.995 379.624 314.243C383.124 312.643 387.136 311.207 391 312.243C395.5 313.443 398.676 317.316 402.841 319.217C405.18 320.328 407.815 320.654 410.354 320.147C413.344 319.558 416.138 318.089 418.994 317.067C431.992 312.443 445.896 310.946 459.58 312.697C461.49 312.94 461.472 309.938 459.58 309.697C447.223 308.135 434.677 309.154 422.734 312.69C419.668 313.6 416.69 314.72 413.723 315.906C411.091 316.958 408.375 317.906 405.551 317.063C401.015 315.715 397.768 311.705 393.414 309.91C384.914 306.41 376.8 312.803 369.271 315.862C365.771 317.283 361.832 318.215 358.371 316.18C354.689 314.014 352.58 309.956 349.178 307.425C348.295 306.725 347.28 306.211 346.193 305.914C345.106 305.616 343.97 305.542 342.854 305.694C339.754 306.183 337.192 308.539 334.901 310.522C329.963 314.82 325.713 319.85 322.3 325.437C321.287 327.086 323.88 328.595 324.89 326.951H324.886Z" fill="#E11D48"/>
</g>
<g opacity="0.2">
<path d="M194.337 107.331C219.89 105.945 245.462 105.024 271.053 104.568C278.363 104.439 285.674 104.348 292.985 104.295C293.383 104.295 293.764 104.137 294.046 103.856C294.327 103.574 294.485 103.193 294.485 102.795C294.485 102.397 294.327 102.016 294.046 101.734C293.764 101.453 293.383 101.295 292.985 101.295C267.396 101.482 241.816 102.136 216.245 103.255C208.941 103.576 201.638 103.934 194.337 104.331C192.417 104.436 192.405 107.436 194.337 107.331Z" fill="#E11D48"/>
<path d="M199.823 124.709C225.027 123.26 250.248 122.169 275.485 121.434C282.624 121.226 289.764 121.048 296.904 120.899C298.832 120.858 298.839 117.858 296.904 117.899C271.664 118.432 246.435 119.32 221.217 120.563C214.084 120.916 206.952 121.298 199.823 121.709C197.903 121.819 197.891 124.82 199.823 124.709Z" fill="#E11D48"/>
<path d="M199.875 145C225.693 145.967 291.684 140.424 298.875 139.329C300.775 139.039 299.969 136.148 298.075 136.436C272.751 140.296 207.09 142.271 199.875 142C197.944 141.928 197.948 144.928 199.875 145Z" fill="#E11D48"/>
<path d="M199.852 166.705C215.7 164.96 231.662 164.484 247.586 165.28C249.515 165.38 249.51 162.38 247.586 162.28C231.662 161.484 215.7 161.96 199.852 163.705C197.952 163.914 197.933 166.916 199.852 166.705Z" fill="#E11D48"/>
</g>
<g opacity="0.2">
<path d="M579.645 311.583C570.402 311.397 561.16 311.508 551.918 311.916C550.573 311.977 548.561 311.697 547.928 313.221C547.709 314.182 547.68 315.177 547.843 316.148C547.904 318.414 547.884 320.683 547.861 322.948C547.811 327.919 547.673 332.89 547.647 337.862C547.599 339.196 547.626 340.532 547.728 341.862C547.721 342.144 547.783 342.424 547.908 342.676C548.033 342.929 548.218 343.148 548.446 343.313C549.111 343.602 549.837 343.725 550.56 343.672C551.658 343.739 552.758 343.79 553.86 343.826C562.901 344.155 571.96 343.84 580.992 344.426C581.327 344.424 581.647 344.29 581.884 344.053C582.12 343.817 582.254 343.496 582.256 343.161L581.083 316.675L580.914 312.85C580.842 311.229 578.314 311.22 578.384 312.85L579.557 339.336L579.727 343.161L580.992 341.896C573.592 341.42 566.172 341.546 558.762 341.425C556.968 341.395 555.174 341.353 553.381 341.283C552.519 341.249 551.657 341.208 550.795 341.16C550.415 341.104 550.032 341.08 549.648 341.09C550.159 341.898 550.362 342.128 550.258 341.782C550.249 341.746 550.242 341.71 550.236 341.674C550.184 341.72 550.246 341.888 550.23 341.482C550.22 341.212 550.205 340.943 550.198 340.673C550.178 339.973 550.178 339.266 550.178 338.562C550.184 334.1 550.306 329.638 550.368 325.177C550.4 322.889 550.426 320.602 550.41 318.314C550.404 317.486 550.394 316.659 550.367 315.832C550.383 315.479 550.369 315.125 550.323 314.774C550.296 314.611 550.286 314.446 550.292 314.28L549.963 314.54L551.082 314.486C560.598 314.041 570.12 313.917 579.649 314.115C579.815 314.115 579.98 314.082 580.133 314.018C580.287 313.954 580.426 313.861 580.544 313.743C580.661 313.625 580.754 313.486 580.817 313.332C580.881 313.178 580.913 313.014 580.913 312.847C580.913 312.681 580.88 312.517 580.816 312.363C580.752 312.21 580.659 312.07 580.541 311.953C580.423 311.835 580.283 311.742 580.13 311.679C579.976 311.616 579.811 311.583 579.645 311.583Z" fill="#E11D48"/>
<path d="M555.753 327.322C557.068 330.753 559.215 333.804 562 336.2C563.313 337.305 564.414 337.613 565.923 336.643C567.657 335.529 569.413 334.449 571.148 333.343C575.377 330.633 579.496 327.757 583.719 325.043C585.949 323.609 588.232 322.261 590.543 320.961C590.818 320.785 591.015 320.509 591.091 320.191C591.168 319.873 591.118 319.538 590.953 319.256C590.788 318.974 590.521 318.766 590.206 318.677C589.892 318.588 589.555 318.624 589.266 318.777C584.772 321.307 580.502 324.138 576.219 327.004C573.056 329.12 569.862 331.19 566.639 333.213C566.039 333.589 564.645 334.777 564.139 334.705C563.513 334.616 562.264 333.005 561.853 332.552C560.291 330.823 559.052 328.826 558.197 326.658C557.604 325.158 555.156 325.815 555.758 327.33L555.753 327.322Z" fill="#E11D48"/>
<path d="M555.753 372.2C557.069 375.63 559.215 378.68 562 381.075C563.313 382.181 564.414 382.489 565.923 381.519C567.657 380.405 569.413 379.325 571.148 378.213C575.377 375.503 579.496 372.627 583.719 369.913C585.949 368.478 588.232 367.131 590.543 365.83C590.818 365.654 591.015 365.378 591.091 365.06C591.168 364.742 591.118 364.407 590.953 364.125C590.788 363.843 590.521 363.635 590.206 363.546C589.892 363.457 589.555 363.493 589.266 363.646C584.772 366.176 580.502 369.008 576.219 371.874C573.056 373.99 569.862 376.06 566.639 378.082C566.039 378.458 564.645 379.646 564.139 379.574C563.513 379.485 562.264 377.874 561.853 377.421C560.291 375.692 559.052 373.695 558.197 371.527C557.604 370.027 555.156 370.684 555.758 372.2H555.753Z" fill="#E11D48"/>
<path d="M555.753 417.129C557.068 420.559 559.215 423.61 562 426.006C563.313 427.111 564.414 427.419 565.923 426.449C567.657 425.335 569.413 424.256 571.148 423.144C575.377 420.434 579.496 417.558 583.719 414.844C585.949 413.41 588.232 412.063 590.543 410.762C590.818 410.586 591.015 410.31 591.091 409.992C591.168 409.674 591.118 409.339 590.953 409.057C590.788 408.774 590.521 408.567 590.206 408.478C589.892 408.389 589.555 408.424 589.266 408.578C584.772 411.108 580.502 413.94 576.219 416.805C573.056 418.921 569.862 420.991 566.639 423.014C566.039 423.39 564.645 424.578 564.139 424.506C563.513 424.417 562.264 422.806 561.853 422.353C560.291 420.623 559.052 418.627 558.197 416.459C557.604 414.959 555.156 415.616 555.758 417.132L555.753 417.129Z" fill="#E11D48"/>
<path d="M579.645 356.455C570.402 356.269 561.16 356.38 551.918 356.788C550.573 356.849 548.561 356.569 547.928 358.093C547.709 359.053 547.68 360.048 547.843 361.02C547.904 363.286 547.884 365.555 547.861 367.82C547.811 372.792 547.673 377.763 547.647 382.735C547.599 384.068 547.626 385.404 547.728 386.735C547.721 387.016 547.783 387.296 547.908 387.549C548.033 387.801 548.218 388.02 548.446 388.186C549.111 388.474 549.837 388.598 550.56 388.545C551.66 388.609 552.76 388.658 553.86 388.698C562.901 389.028 571.96 388.713 580.992 389.298C581.327 389.295 581.647 389.161 581.883 388.924C582.12 388.687 582.254 388.367 582.256 388.033L581.083 361.547L580.914 357.722C580.842 356.101 578.314 356.092 578.384 357.722L579.557 384.208L579.727 388.033L580.992 386.768C573.592 386.292 566.172 386.418 558.762 386.297C556.968 386.267 555.174 386.225 553.381 386.155C552.519 386.121 551.657 386.08 550.795 386.032C550.415 385.974 550.032 385.951 549.648 385.962C550.159 386.768 550.362 386.999 550.258 386.654C550.249 386.618 550.242 386.582 550.236 386.545C550.184 386.592 550.246 386.76 550.23 386.354C550.22 386.084 550.205 385.814 550.198 385.545C550.178 384.845 550.178 384.138 550.178 383.434C550.184 378.972 550.306 374.51 550.368 370.048C550.4 367.761 550.426 365.473 550.41 363.186C550.404 362.358 550.394 361.531 550.367 360.703C550.383 360.35 550.369 359.996 550.323 359.646C550.296 359.48 550.285 359.313 550.292 359.146L549.963 359.407L551.082 359.353C560.598 358.907 570.12 358.783 579.649 358.982C579.97 358.961 580.272 358.818 580.492 358.583C580.712 358.348 580.834 358.038 580.834 357.716C580.833 357.394 580.71 357.084 580.489 356.85C580.268 356.616 579.966 356.474 579.645 356.455Z" fill="#E11D48"/>
<path d="M579.645 401.328C570.402 401.142 561.16 401.253 551.918 401.661C550.573 401.721 548.561 401.442 547.928 402.966C547.709 403.926 547.68 404.921 547.843 405.893C547.904 408.159 547.884 410.428 547.861 412.693C547.811 417.665 547.673 422.636 547.647 427.607C547.599 428.94 547.626 430.276 547.728 431.607C547.721 431.889 547.783 432.168 547.908 432.421C548.033 432.674 548.218 432.893 548.446 433.059C549.111 433.348 549.837 433.47 550.56 433.417C551.66 433.482 552.76 433.531 553.86 433.571C562.901 433.9 571.96 433.585 580.992 434.171C581.327 434.168 581.647 434.034 581.883 433.798C582.12 433.561 582.254 433.241 582.256 432.907L581.083 406.421L580.914 402.596C580.842 400.974 578.314 400.966 578.384 402.596L579.557 429.081L579.727 432.907L580.992 431.642C573.592 431.166 566.172 431.292 558.762 431.17C556.968 431.141 555.174 431.099 553.381 431.029C552.519 430.995 551.657 430.954 550.795 430.906C550.415 430.848 550.032 430.825 549.648 430.836C550.159 431.642 550.362 431.873 550.258 431.527C550.249 431.492 550.242 431.456 550.236 431.419C550.184 431.466 550.246 431.634 550.23 431.227C550.22 430.958 550.205 430.688 550.198 430.418C550.178 429.718 550.178 429.011 550.178 428.308C550.184 423.846 550.306 419.384 550.368 414.922C550.4 412.635 550.426 410.347 550.41 408.06C550.404 407.232 550.394 406.404 550.367 405.577C550.383 405.224 550.369 404.87 550.323 404.52C550.296 404.354 550.285 404.187 550.292 404.02L549.963 404.281C550.336 404.261 550.709 404.243 551.082 404.227C560.598 403.781 570.12 403.657 579.649 403.856C579.972 403.837 580.275 403.695 580.497 403.46C580.719 403.225 580.842 402.913 580.842 402.59C580.841 402.266 580.717 401.955 580.495 401.721C580.272 401.486 579.968 401.345 579.645 401.328Z" fill="#E11D48"/>
<path d="M600.422 319.971C600.37 320.933 600.563 321.894 600.983 322.761C601.404 323.628 602.038 324.374 602.826 324.929C603.615 325.484 604.531 325.83 605.489 325.934C606.447 326.037 607.416 325.896 608.305 325.522C610.214 324.696 610.871 323.175 611.868 321.496C612.549 320.349 613.058 320.731 614.175 321.186C615.306 321.634 616.494 321.923 617.704 322.044C622.919 322.63 628.361 320.935 633.512 320.292C638.983 319.609 644.487 319.233 650 319.166C656.328 319.093 662.654 319.422 668.94 320.15C670.555 320.335 670.54 317.804 668.94 317.62C658.697 316.434 648.358 316.314 638.09 317.263C633.19 317.72 628.379 318.569 623.519 319.291C621.081 319.771 618.569 319.739 616.144 319.196C614.415 318.716 612.804 317.44 611.06 318.612C609.407 319.724 609.325 322.147 607.552 323.088C607.047 323.352 606.48 323.475 605.911 323.443C605.342 323.41 604.792 323.224 604.32 322.905C603.848 322.585 603.472 322.143 603.231 321.627C602.99 321.11 602.894 320.538 602.952 319.971C603.025 318.344 600.495 318.348 600.422 319.971Z" fill="#E11D48"/>
<path d="M597.8 364.848C598.148 368.216 602.2 368.481 604.53 366.918C606.156 365.827 607.56 364.135 609.698 364.918C611.683 365.647 613.253 367.051 615.382 367.478C619.824 368.368 624.633 366.906 629.045 366.371C634.032 365.767 639.041 365.403 644.072 365.278C649.735 365.144 655.402 365.311 661.047 365.778C662.67 365.911 662.661 363.378 661.047 363.248C651.938 362.493 642.78 362.527 633.677 363.348C629.169 363.759 624.725 364.601 620.231 365.08C618.187 365.427 616.086 365.199 614.164 364.422C612.575 363.662 611.145 362.512 609.364 362.222C607.372 361.899 605.805 362.803 604.276 363.973C603.635 364.585 602.862 365.041 602.016 365.305C601.63 365.378 600.39 365.445 600.328 364.843C600.163 363.243 597.628 363.222 597.799 364.843L597.8 364.848Z" fill="#E11D48"/>
<path d="M601.312 408.775C601.559 412.549 606.062 413.529 609.075 412.38C611.175 411.58 613.188 409.698 615.524 409.672C616.854 409.811 618.142 410.219 619.31 410.872C620.595 411.414 621.921 411.854 623.276 412.188C628.393 413.442 633.723 413.288 638.936 412.888C644.6 412.457 650.242 411.941 655.924 411.78C662.605 411.592 669.284 411.727 675.961 412.186C677.586 412.295 677.579 409.765 675.961 409.656C665.128 408.932 654.256 409.04 643.44 409.979C638.468 410.578 633.453 410.746 628.452 410.479C626.034 410.281 623.652 409.775 621.363 408.972C619.177 408.188 617.18 406.89 614.763 407.205C612.263 407.53 610.413 409.238 608.106 410.045C606.915 410.461 603.958 410.585 603.839 408.768C603.733 407.152 601.203 407.14 601.31 408.768L601.312 408.775Z" fill="#E11D48"/>
</g>
<g opacity="0.2">
<path d="M651.884 58.7129C653.308 55.3198 655.077 52.0816 657.161 49.0489C657.861 48.0319 658.817 46.2209 660.288 46.8019C661.646 47.3389 662.872 48.9109 663.888 49.9219C665.963 51.9889 668.041 54.1999 670.638 55.6219C673.208 57.0469 676.224 57.4382 679.072 56.7159C682.064 55.9719 684.719 54.2829 687.418 52.8589C690.394 51.1997 693.753 50.3469 697.16 50.3849C700.842 50.5945 704.493 51.1912 708.05 52.1649C711.743 53.0259 715.45 53.7799 719.209 54.3109C727.709 55.5165 736.316 55.7684 744.872 55.0619C746.782 54.9019 746.799 51.9009 744.872 52.0619C736.929 52.7315 728.937 52.5615 721.029 51.5549C717.084 51.0269 713.167 50.3 709.295 49.3769C705.614 48.394 701.854 47.7382 698.058 47.4169C694.478 47.2059 690.901 47.8873 687.649 49.3999C684.849 50.6999 682.277 52.5359 679.338 53.5169C677.95 54.0142 676.461 54.1636 675.002 53.9521C673.542 53.7406 672.157 53.1748 670.967 52.3039C668.467 50.5929 666.51 48.1889 664.295 46.1479C662.949 44.9079 661.415 43.5679 659.465 43.6479C657.702 43.7209 656.42 45.0149 655.427 46.3369C652.949 49.6954 650.889 53.3432 649.293 57.1999C649.106 57.5465 649.058 57.9511 649.157 58.332C649.257 58.7129 649.498 59.0417 649.831 59.2519C650.175 59.4501 650.584 59.5047 650.968 59.4041C651.352 59.3034 651.681 59.0545 651.884 58.7129Z" fill="#E11D48"/>
</g>
<g opacity="0.2">
<path d="M661.856 81.5752L664.42 78.5552L665.862 76.8552C666.219 76.3203 666.642 75.8327 667.121 75.4042C667.948 74.8662 669.136 76.0412 669.892 76.4482C670.927 77.0059 672.024 77.4421 673.159 77.7482C677.621 78.9482 682.335 78.1792 686.772 77.2582C691.647 76.0866 696.609 75.3143 701.61 74.9492C706.837 74.7222 712.067 75.0012 717.293 75.0732C723.239 75.3049 729.191 74.7817 735.006 73.5162C736.881 73.0592 736.087 70.1652 734.206 70.6232C723.592 73.2112 712.622 71.5062 701.84 71.9392C696.771 72.2593 691.739 73.0154 686.8 74.1992C682.291 75.1642 677.318 76.1582 672.843 74.5142C670.643 73.7042 668.303 71.1712 665.829 72.6332C664.708 73.4875 663.731 74.5166 662.937 75.6812L659.737 79.4562C658.494 80.9202 660.606 83.0562 661.858 81.5772L661.856 81.5752Z" fill="#E11D48"/>
</g>
<path d="M827.082 580.278H1C0.734784 580.278 0.48043 580.173 0.292893 579.985C0.105357 579.798 0 579.544 0 579.278C0 579.013 0.105357 578.759 0.292893 578.571C0.48043 578.384 0.734784 578.278 1 578.278H827.082C827.347 578.278 827.602 578.384 827.789 578.571C827.977 578.759 828.082 579.013 828.082 579.278C828.082 579.544 827.977 579.798 827.789 579.985C827.602 580.173 827.347 580.278 827.082 580.278Z" fill="#292A2E"/>
<path d="M565.194 578.762H676.704V546.762H565.194V578.762Z" fill="#E11D48"/>
<path opacity="0.69" d="M565.194 578.762H676.704V546.762H565.194V578.762Z" fill="white"/>
<path opacity="0.65" d="M580.168 578.762H594.78V546.762H580.168V578.762Z" fill="white"/>
<path opacity="0.65" d="M601.701 571.808H662.455V552.845H601.701V571.808Z" fill="white"/>
<path d="M538.606 546.793H648.584V514.793H538.606V546.793Z" fill="#E11D48"/>
<path opacity="0.6" d="M538.606 546.793H648.584V514.793H538.606V546.793Z" fill="white"/>
<path opacity="0.42" d="M552.659 539.838H612.578V520.875H552.659V539.838Z" fill="white"/>
<path opacity="0.42" d="M619.404 546.794H633.815V514.794H619.404V546.794Z" fill="white"/>
<path d="M484.907 578.762L557.352 493.99L533.025 473.201L460.58 557.972L484.907 578.762Z" fill="#E11D48"/>
<path opacity="0.78" d="M484.907 578.762L557.352 493.99L533.025 473.201L460.58 557.972L484.907 578.762Z" fill="white"/>
<path opacity="0.2" d="M494.636 567.378L504.129 556.27L479.803 535.48L470.31 546.588L494.636 567.378Z" fill="#E11D48"/>
<path opacity="0.2" d="M503.338 546.49L542.808 500.304L528.392 487.984L488.922 534.17L503.338 546.49Z" fill="#E11D48"/>
<path d="M794.583 415.489L690.705 539.827L693.008 541.751L796.886 417.413L794.583 415.489Z" fill="#292A2E"/>
<path d="M748.482 528.671H736.232V571.809H748.482V528.671Z" fill="#E11D48"/>
<path d="M736.232 551.064L748.481 558.018V548.627L736.232 551.064Z" fill="#292A2E"/>
<path d="M760.46 571.809H725.841C724.055 571.809 722.607 573.257 722.607 575.043V575.044C722.607 576.83 724.055 578.278 725.841 578.278H760.46C762.246 578.278 763.694 576.83 763.694 575.044V575.043C763.694 573.257 762.246 571.809 760.46 571.809Z" fill="#E11D48"/>
<path d="M742.357 562.019C731.012 562.002 719.792 559.654 709.392 555.121C698.992 550.587 689.635 543.966 681.9 535.666C681.629 535.374 681.485 534.987 681.5 534.589C681.515 534.191 681.687 533.816 681.979 533.545C682.27 533.274 682.658 533.13 683.055 533.145C683.453 533.159 683.829 533.332 684.1 533.623C691.674 541.779 700.876 548.254 711.11 552.63C721.344 557.006 732.383 559.185 743.512 559.026C754.642 558.868 765.614 556.375 775.719 551.709C785.824 547.044 794.838 540.309 802.177 531.941C809.516 523.573 815.016 513.757 818.323 503.13C821.63 492.502 822.67 481.298 821.375 470.243C820.08 459.189 816.479 448.529 810.805 438.953C805.131 429.378 797.51 421.1 788.436 414.654C788.271 414.542 788.13 414.398 788.021 414.23C787.913 414.063 787.838 413.875 787.803 413.679C787.768 413.482 787.772 413.28 787.816 413.086C787.86 412.891 787.942 412.707 788.058 412.544C788.174 412.381 788.321 412.243 788.491 412.138C788.661 412.033 788.85 411.963 789.047 411.932C789.244 411.901 789.446 411.91 789.64 411.958C789.834 412.006 790.016 412.092 790.176 412.211C804.441 422.352 815.114 436.766 820.651 453.369C826.189 469.973 826.304 487.907 820.982 504.581C815.66 521.254 805.175 535.805 791.042 546.129C776.909 556.454 759.86 562.019 742.357 562.019Z" fill="#292A2E"/>
<path d="M742.357 551.064C781.888 551.064 813.934 519.018 813.934 479.487C813.934 439.956 781.888 407.91 742.357 407.91C702.826 407.91 670.78 439.956 670.78 479.487C670.78 519.018 702.826 551.064 742.357 551.064Z" fill="#E11D48"/>
<path opacity="0.5" d="M742.357 551.064C781.888 551.064 813.934 519.018 813.934 479.487C813.934 439.956 781.888 407.91 742.357 407.91C702.826 407.91 670.78 439.956 670.78 479.487C670.78 519.018 702.826 551.064 742.357 551.064Z" fill="white"/>
<g opacity="0.4">
<path d="M809.067 505.5C804.492 517.203 796.921 527.498 787.114 535.354C777.306 543.209 765.607 548.35 753.187 550.26C752.247 547.27 751.307 544.27 750.377 541.28C748.787 536.21 747.297 530.33 750.196 525.88C751.596 523.73 753.827 522.29 755.827 520.69C760.064 517.272 763.449 512.918 765.717 507.97C766.857 505.46 767.837 502.64 770.127 501.1C771.56 500.263 773.163 499.757 774.817 499.62C780.778 498.851 786.812 498.838 792.776 499.58C796.997 500.05 801.267 500.8 805.026 502.77C806.466 503.533 807.821 504.449 809.067 505.5Z" fill="white"/>
</g>
<g opacity="0.4">
<path d="M813.877 476.656C806.812 475.897 799.966 473.757 793.727 470.356C791.191 469.094 788.936 467.332 787.097 465.176C785.66 463.218 784.633 460.991 784.077 458.626C783.268 455.508 782.977 452.279 783.217 449.066C783.567 444.436 784.967 439.466 782.757 435.386C781.127 432.366 777.867 430.606 774.607 429.506C771.347 428.406 767.917 427.806 764.857 426.266C763.175 425.533 761.792 424.25 760.937 422.626C760.36 420.986 760.239 419.22 760.587 417.516C760.972 415.21 761.558 412.941 762.337 410.736C776.755 414.933 789.488 423.556 798.737 435.385C807.986 447.215 813.282 461.652 813.877 476.656Z" fill="white"/>
</g>
<g opacity="0.4">
<path d="M744.257 468.005C744.717 479.665 725.887 480.145 723.257 490.255C721.167 496.355 723.696 502.985 724.927 509.315C728.377 527.105 713.677 533.745 699.986 537.175C686.056 526.942 676.297 512.015 672.513 495.15C668.729 478.284 671.174 460.619 679.397 445.415C681.964 445.028 684.562 444.878 687.157 444.965C694.587 443.215 699.427 436.205 705.847 432.065C716.077 425.335 731.747 423.485 734.276 436.135C736.236 445.915 727.307 447.435 729.927 455.585C732.067 461.765 742.877 461.605 744.257 468.005Z" fill="white"/>
</g>
<path d="M431.962 240.499C432.233 239.752 432.654 239.067 433.199 238.488C433.743 237.908 434.4 237.446 435.129 237.129C435.858 236.812 436.644 236.646 437.44 236.643C438.235 236.639 439.022 236.798 439.754 237.109C441.149 237.76 442.246 238.916 442.821 240.345C443.397 241.773 443.408 243.366 442.854 244.803L440.154 252.233L457.089 234.966C459.189 232.756 463.189 231.39 465.513 233.914C467.525 235.83 472.178 236.421 472.933 240.014C472.959 240.033 472.912 272.908 470.96 274.958C462.677 283.658 442.655 285.338 431.485 280.921L413.905 273.97L431.962 240.499Z" fill="#E98862"/>
<g opacity="0.1">
<path d="M431.962 240.499C432.233 239.752 432.654 239.067 433.199 238.488C433.743 237.908 434.4 237.446 435.129 237.129C435.858 236.812 436.644 236.646 437.44 236.643C438.235 236.639 439.022 236.798 439.754 237.109C441.149 237.76 442.246 238.916 442.821 240.345C443.397 241.773 443.408 243.366 442.854 244.803L440.154 252.233L457.089 234.966C459.189 232.756 463.189 231.39 465.513 233.914C467.525 235.83 472.178 236.421 472.933 240.014C472.959 240.033 472.912 272.908 470.96 274.958C462.677 283.658 442.655 285.338 431.485 280.921L413.905 273.97L431.962 240.499Z" fill="#0C0C0C"/>
</g>
<path d="M449.276 276.094C448.638 276.094 448.009 275.941 447.442 275.649C446.875 275.356 446.386 274.932 446.016 274.412C445.646 273.892 445.406 273.291 445.316 272.659C445.225 272.028 445.288 271.383 445.497 270.781L514.809 71.1186C514.974 70.6134 515.238 70.1462 515.586 69.7443C515.934 69.3424 516.358 69.0138 516.834 68.7777C517.31 68.5416 517.829 68.4028 518.359 68.3693C518.889 68.3358 519.421 68.4084 519.923 68.5827C520.425 68.757 520.888 69.0297 521.283 69.3847C521.679 69.7397 521.999 70.17 522.227 70.6504C522.454 71.1308 522.583 71.6516 522.607 72.1825C522.631 72.7135 522.549 73.2438 522.365 73.7426L453.054 273.4C452.782 274.186 452.273 274.868 451.596 275.35C450.918 275.833 450.108 276.093 449.276 276.094Z" fill="#0A0A0A"/>
<path d="M448.548 261.061C448.832 260.055 449.437 259.17 450.27 258.54C451.104 257.909 452.12 257.569 453.165 257.57C453.152 257.487 453.065 257.294 453.207 257.279L449.607 255.532C448.536 255.04 447.679 254.178 447.194 253.103C446.71 252.029 446.631 250.815 446.972 249.687C447.345 248.584 448.114 247.659 449.13 247.091C450.146 246.523 451.337 246.352 452.472 246.612C452.456 246.568 452.479 246.519 452.478 246.472L451 245.754C449.993 245.286 449.178 244.485 448.694 243.485C448.209 242.486 448.085 241.35 448.342 240.27C448.517 239.596 448.839 238.969 449.286 238.435C449.732 237.9 450.292 237.471 450.924 237.18C451.556 236.888 452.246 236.74 452.942 236.746C453.638 236.753 454.324 236.914 454.951 237.218L458.363 238.875C458.369 238.855 458.356 238.836 458.363 238.817C458.37 238.798 458.404 238.787 458.419 238.765C457.586 238.1 457.004 237.172 456.768 236.133C456.532 235.095 456.656 234.006 457.119 233.047C458.157 230.494 461.548 230.398 463.754 231.469L470.44 235.383C471.472 235.987 472.338 236.837 472.962 237.857C473.586 238.877 473.948 240.035 474.016 241.229C474.616 251.558 475.524 278.573 468.484 275.155L451.153 266.739C450.15 266.216 449.349 265.374 448.878 264.346C448.406 263.318 448.29 262.162 448.548 261.061Z" fill="#E98862"/>
<path d="M77.258 233.323C77.258 233.323 75.112 265.539 67.864 277.223C47 310.875 40.953 348.729 61.849 368.504C82.745 388.279 216.019 388.555 226.115 343.068C234.615 304.774 216.374 300.656 211.936 269.068C209.927 254.771 204.4 224.799 204.4 224.799" fill="#0A0A0A"/>
<path d="M191.618 336.398C191.388 336.368 188.835 378.728 139.625 375.035C105.557 372.483 93.41 336.335 92.625 336.335C96.298 335.555 102.484 334.419 104.115 333.549C109.479 330.666 116.115 327.667 117.846 317.249C118.846 311.249 117.152 280.527 117.672 274.449L169.972 286.121C169.241 298.951 164.127 328.696 182.052 333.96C185.033 334.837 188.246 335.638 191.618 336.398Z" fill="#E98862"/>
<path opacity="0.5" d="M170.7 321.81C169.88 319.171 169.353 316.449 169.127 313.694C168.551 307.408 168.666 301.078 169.469 294.816C158.841 293.382 148.828 288.995 140.569 282.154C139.598 285.74 134.258 301.41 135.736 304.818C138.532 311.26 151.666 321.81 170.7 321.81Z" fill="#0C0C0C"/>
<path d="M163.941 308.614C143.324 310.614 116.648 302.362 111.121 274.906L106.135 250.132C100.609 222.676 110.55 197.516 136.402 192.313C162.253 187.113 186.056 205.479 191.582 232.935L193.789 243.903C195.91 254.437 200.727 305.055 163.941 308.614Z" fill="#E98862"/>
<path opacity="0.1" d="M150.836 272.635C154.229 272.23 156.739 269.884 156.442 267.396C156.145 264.907 153.154 263.218 149.761 263.622C146.368 264.027 143.858 266.373 144.155 268.862C144.452 271.35 147.443 273.039 150.836 272.635Z" fill="#0C0C0C"/>
<path opacity="0.1" d="M186.688 262.685C186.988 265.17 189.982 266.857 193.376 266.457C193.962 266.387 194.54 266.255 195.099 266.066C195.256 263.103 195.266 260.252 195.179 257.613C194.237 257.378 193.259 257.321 192.296 257.445C188.9 257.845 186.393 260.19 186.688 262.685Z" fill="#0C0C0C"/>
<path opacity="0.5" d="M171.7 270.366L171.751 270.358C172.799 270.14 173.834 269.864 174.851 269.531C176.369 269.023 178.356 268.189 178.079 266.816C177.765 265.251 170.079 249.235 169.207 247.416C169.128 247.262 168.991 247.144 168.827 247.089C168.662 247.034 168.483 247.045 168.326 247.12C168.17 247.196 168.049 247.329 167.989 247.492C167.93 247.655 167.936 247.835 168.007 247.993C171.284 254.814 176.563 266.028 176.774 267.082C176.609 267.573 174.09 268.532 171.491 269.056C171.405 269.07 171.322 269.101 171.248 269.147C171.174 269.192 171.109 269.252 171.058 269.323C171.007 269.394 170.97 269.474 170.95 269.559C170.93 269.644 170.927 269.732 170.941 269.818C170.954 269.905 170.985 269.987 171.031 270.062C171.077 270.136 171.137 270.201 171.208 270.252C171.279 270.303 171.359 270.339 171.444 270.36C171.529 270.38 171.617 270.383 171.703 270.369L171.7 270.366Z" fill="#0C0C0C"/>
<path d="M85.509 259.024L108.685 254.497C126.191 247.176 131.158 216.665 131.158 216.665C131.158 216.665 152.764 237.241 204.403 224.799C204.403 224.799 193.186 152.713 116.938 174.594C92.352 181.649 74.938 206.709 77.528 239.901C79.343 263.162 85.509 259.024 85.509 259.024Z" fill="#0A0A0A"/>
<path d="M114.411 282.946C106.554 284.527 98.494 277.404 96.911 269.546C95.328 261.688 100.827 256.075 108.683 254.494L113.79 258.943L121.163 281.584L114.411 282.946Z" fill="#E98862"/>
<path d="M174.77 234.641C176.736 233.251 179.035 232.407 181.433 232.194C182.636 232.08 183.85 232.147 185.033 232.394C186.228 232.639 187.387 233.031 188.484 233.563L188.519 233.579C188.641 233.633 188.778 233.637 188.903 233.591C189.027 233.544 189.129 233.451 189.185 233.33C189.242 233.21 189.249 233.072 189.205 232.947C189.162 232.821 189.071 232.718 188.952 232.658C187.79 232.045 186.555 231.58 185.276 231.274C183.989 230.962 182.661 230.844 181.339 230.925C178.661 231.074 176.071 231.937 173.839 233.425C173.756 233.482 173.685 233.554 173.63 233.638C173.575 233.722 173.537 233.816 173.518 233.915C173.499 234.013 173.5 234.115 173.521 234.213C173.541 234.311 173.581 234.404 173.637 234.487C173.693 234.57 173.766 234.642 173.85 234.697C173.934 234.752 174.028 234.79 174.126 234.808C174.225 234.827 174.326 234.826 174.424 234.806C174.523 234.786 174.616 234.746 174.699 234.689L174.717 234.676L174.77 234.641Z" fill="#0C0C0C"/>
<path d="M153.6 237.569C150.968 237.046 148.244 237.239 145.712 238.127C144.46 238.558 143.281 239.174 142.212 239.956C141.148 240.727 140.184 241.629 139.345 242.641C139.256 242.741 139.211 242.872 139.218 243.005C139.225 243.139 139.284 243.264 139.383 243.354C139.482 243.444 139.612 243.492 139.746 243.487C139.879 243.482 140.005 243.424 140.097 243.327L140.124 243.299C140.933 242.387 141.854 241.581 142.864 240.899C143.864 240.216 144.961 239.689 146.119 239.335C148.416 238.614 150.863 238.515 153.211 239.046L153.269 239.06C153.466 239.108 153.674 239.075 153.847 238.97C154.02 238.864 154.144 238.694 154.192 238.497C154.239 238.3 154.207 238.093 154.101 237.92C153.996 237.747 153.826 237.623 153.629 237.575L153.6 237.569Z" fill="#0C0C0C"/>
<path d="M108.7 254.117C124.28 248.317 129.449 237.559 131.042 229.553C132.072 224.214 131.975 218.718 130.759 213.418L130.277 213.55C131.474 218.781 131.567 224.205 130.548 229.474C128.977 237.349 123.88 247.935 108.526 253.649L108.7 254.117Z" fill="#0C0C0C"/>
<path d="M231.7 341.438L379.628 390.885L336.196 410.191L409.953 258.871L470.236 286.965L401.8 440.763C398.339 448.54 392.194 454.813 384.49 458.434C376.786 462.055 368.036 462.784 359.839 460.486L358.368 460.069L208.2 417.909L231.7 341.438Z" fill="#E11D48"/>
<path d="M138.706 364.447C104.615 362.84 103.18 333.904 103.18 333.904C103.18 333.904 86.288 334.999 75.058 336.515C56.674 338.999 44.546 345.236 34.9 354.887C25.922 363.865 20.456 373.579 26.24 435.598C30.428 480.503 27.48 579.277 27.48 579.277H235.23C235.23 579.277 249.738 436.577 251.457 416.366C254.74 377.777 264.012 369.258 245.225 349.38C231.6 334.964 196.425 333.904 182.267 333.906C182.031 333.906 185.134 366.635 138.706 364.447Z" fill="#E11D48"/>
<path d="M209.668 483.46L240.941 469.493C241.628 469.186 242.372 469.026 243.124 469.023C243.877 469.019 244.622 469.172 245.312 469.472C246.002 469.772 246.623 470.213 247.133 470.765C247.644 471.318 248.034 471.971 248.278 472.683C248.688 474.011 248.59 475.444 248.004 476.704C247.418 477.965 246.385 478.962 245.105 479.504L238.399 482.504L263.81 482.765C266.635 482.745 270.116 484.528 269.93 487.699C269.937 488.923 269.529 490.113 268.772 491.076C268.016 492.038 266.957 492.716 265.766 492.999C265.772 493.026 265.776 493.053 265.778 493.08C265.775 493.101 265.771 493.122 265.765 493.142L270.122 493.111C270.929 493.106 271.726 493.28 272.457 493.622C273.188 493.964 273.833 494.464 274.346 495.087C274.859 495.71 275.226 496.439 275.421 497.222C275.617 498.004 275.635 498.821 275.475 499.611C275.198 500.853 274.503 501.961 273.506 502.751C272.51 503.541 271.272 503.965 270 503.951L268.145 503.965C268.121 504.019 268.087 504.068 268.045 504.109C269.3 504.391 270.413 505.11 271.186 506.138C271.959 507.165 272.342 508.434 272.266 509.717C272.142 511.12 271.494 512.425 270.45 513.37C269.406 514.316 268.044 514.833 266.636 514.817L262.03 514.85C262.095 514.895 262.149 514.955 262.186 515.024C262.224 515.094 262.244 515.171 262.246 515.25C262.243 515.345 262.212 515.437 262.157 515.514C263.205 516.076 264.039 516.965 264.532 518.047C265.024 519.129 265.148 520.342 264.884 521.501C264.581 522.713 263.879 523.786 262.89 524.549C261.901 525.311 260.684 525.717 259.435 525.701L220.576 525.978C215.14 526.017 209.816 524.432 205.286 521.425C200.757 518.418 197.229 514.127 195.154 509.102C193.365 504.77 193.335 499.91 195.072 495.556C196.808 491.202 200.174 487.697 204.454 485.785L209.668 483.46Z" fill="#E98862"/>
<g opacity="0.2">
<path d="M240.612 492.867C240.614 492.999 240.668 493.124 240.761 493.216C240.855 493.308 240.981 493.359 241.112 493.359L265.278 493.577C265.411 493.579 265.538 493.527 265.633 493.434C265.727 493.341 265.781 493.214 265.783 493.082C265.784 492.949 265.732 492.822 265.639 492.727C265.546 492.632 265.42 492.579 265.287 492.577L241.121 492.359C240.988 492.359 240.861 492.412 240.767 492.506C240.674 492.6 240.621 492.727 240.621 492.859L240.612 492.867Z" fill="#0C0C0C"/>
</g>
<g opacity="0.2">
<path d="M240.222 503.523C240.224 503.654 240.277 503.779 240.371 503.872C240.464 503.964 240.591 504.016 240.722 504.016L267.692 504.259C267.825 504.259 267.952 504.206 268.046 504.112C268.139 504.018 268.192 503.891 268.192 503.759C268.187 503.627 268.133 503.503 268.041 503.41C267.948 503.317 267.823 503.263 267.692 503.259L240.723 503.016C240.59 503.016 240.463 503.068 240.369 503.162C240.276 503.256 240.223 503.383 240.223 503.516L240.222 503.523Z" fill="#0C0C0C"/>
</g>
<g opacity="0.2">
<path d="M239.733 515.061C239.735 515.192 239.788 515.317 239.882 515.41C239.975 515.502 240.102 515.554 240.233 515.554L261.746 515.748C261.812 515.748 261.877 515.736 261.938 515.711C261.999 515.687 262.054 515.65 262.101 515.604C262.148 515.558 262.185 515.504 262.211 515.443C262.236 515.383 262.25 515.318 262.25 515.252C262.251 515.187 262.239 515.121 262.214 515.06C262.19 515 262.153 514.944 262.107 514.897C262.061 514.85 262.006 514.813 261.946 514.787C261.886 514.762 261.821 514.748 261.755 514.748L240.242 514.554C240.109 514.554 239.982 514.606 239.888 514.7C239.795 514.794 239.742 514.921 239.742 515.054L239.733 515.061Z" fill="#0C0C0C"/>
</g>
<path d="M218.619 539.144L45.232 578.558C39.472 579.185 33.6451 578.469 28.2085 576.466C22.7718 574.462 17.8733 571.226 13.8974 567.012C9.92138 562.797 6.97606 557.719 5.2925 552.175C3.60895 546.631 3.23295 540.772 4.194 535.058L24.036 375.458C24.853 370.602 26.6185 365.954 29.2318 361.779C31.845 357.605 35.2549 353.987 39.2667 351.13C43.2785 348.274 47.8136 346.235 52.6131 345.132C57.4126 344.028 62.3825 343.88 67.239 344.697C72.0955 345.514 76.7436 347.28 80.9179 349.893C85.0921 352.506 88.7107 355.916 91.5671 359.928C94.4236 363.94 96.4618 368.475 97.5656 373.274C98.6693 378.074 98.817 383.044 98 387.9L88.441 502.132L208.905 474.871L218.619 539.144Z" fill="#E11D48"/>
<path d="M64.065 506.623C63.9394 506.623 63.8186 506.574 63.7268 506.489C63.635 506.403 63.5789 506.286 63.5695 506.16C63.5602 506.035 63.5984 505.911 63.6765 505.813C63.7546 505.714 63.8669 505.649 63.991 505.629L88.152 500.47C88.217 500.46 88.2836 500.462 88.3476 500.478C88.4117 500.493 88.472 500.521 88.525 500.56C88.578 500.6 88.6227 500.649 88.6563 500.706C88.69 500.762 88.712 500.825 88.721 500.89C88.7405 501.021 88.7072 501.155 88.6285 501.261C88.5497 501.368 88.432 501.439 88.301 501.458L64.14 506.617C64.1152 506.621 64.0901 506.623 64.065 506.623Z" fill="#0C0C0C"/>
<path d="M50.433 579.277C50.3004 579.286 50.1698 579.241 50.0701 579.154C49.9703 579.066 49.9095 578.942 49.901 578.809C49.8925 578.677 49.9371 578.546 50.0248 578.447C50.1126 578.347 50.2364 578.286 50.369 578.277L217.53 538.91L208.059 475.61L88.314 501.46C88.2365 501.47 88.1579 501.462 88.0842 501.436C88.0105 501.41 87.9437 501.368 87.889 501.312C87.8344 501.256 87.7939 501.188 87.7706 501.113C87.7473 501.038 87.742 500.959 87.755 500.881L94.471 435.611C94.4811 435.546 94.5042 435.484 94.5389 435.428C94.5736 435.371 94.6192 435.323 94.673 435.285C94.7268 435.246 94.7877 435.219 94.8521 435.205C94.9165 435.191 94.9831 435.19 95.048 435.201C95.1787 435.223 95.2954 435.296 95.3723 435.405C95.4492 435.513 95.48 435.647 95.458 435.777L88.858 500.377L208.291 474.507C208.355 474.489 208.422 474.484 208.489 474.493C208.555 474.502 208.619 474.524 208.676 474.557C208.733 474.591 208.784 474.636 208.824 474.69C208.864 474.743 208.893 474.804 208.909 474.868L218.623 539.141C218.654 539.268 218.634 539.401 218.568 539.513C218.502 539.625 218.395 539.707 218.27 539.741L50.5 579.273C50.4778 579.276 50.4554 579.278 50.433 579.277Z" fill="#0C0C0C"/>
<path d="M178.607 275.778C171.908 279.184 164.265 280.261 156.886 278.839C156.63 278.791 156.366 278.816 156.125 278.912C155.883 279.008 155.674 279.171 155.522 279.382C155.369 279.593 155.28 279.843 155.265 280.102C155.249 280.362 155.308 280.621 155.434 280.848C157.634 284.725 162.853 291.348 171.804 288.648C177.584 286.904 179.77 280.957 180.58 277.279C180.635 277.025 180.617 276.76 180.526 276.516C180.436 276.271 180.279 276.058 180.071 275.9C179.864 275.743 179.616 275.648 179.357 275.626C179.098 275.604 178.837 275.657 178.607 275.778Z" fill="white"/>
<path d="M179.026 245.986C180.814 245.986 182.263 244.536 182.263 242.749C182.263 240.961 180.814 239.512 179.026 239.512C177.238 239.512 175.789 240.961 175.789 242.749C175.789 244.536 177.238 245.986 179.026 245.986Z" fill="#0C0C0C"/>
<path d="M147.921 251.431C149.709 251.431 151.158 249.982 151.158 248.194C151.158 246.406 149.709 244.957 147.921 244.957C146.133 244.957 144.684 246.406 144.684 248.194C144.684 249.982 146.133 251.431 147.921 251.431Z" fill="#0C0C0C"/>
<path d="M250.99 430.422C250.969 430.423 250.949 430.423 250.928 430.422C250.863 430.414 250.8 430.393 250.743 430.361C250.685 430.328 250.635 430.285 250.595 430.233C250.554 430.181 250.525 430.122 250.507 430.058C250.49 429.995 250.485 429.929 250.493 429.864L253.71 403.787C253.717 403.721 253.737 403.658 253.769 403.6C253.801 403.542 253.844 403.491 253.897 403.451C253.949 403.41 254.008 403.381 254.072 403.364C254.136 403.347 254.203 403.343 254.268 403.353C254.399 403.369 254.519 403.437 254.6 403.542C254.681 403.646 254.718 403.778 254.702 403.91L251.485 429.987C251.469 430.107 251.41 430.217 251.319 430.297C251.228 430.377 251.111 430.422 250.99 430.422Z" fill="#0C0C0C"/>
</g>
<defs>
<filter id="filter0_d_141_25" x="154.534" y="0" width="636.813" height="482.56" filterUnits="userSpaceOnUse" color-interpolation-filters="sRGB">
<feFlood flood-opacity="0" result="BackgroundImageFix"/>
<feColorMatrix in="SourceAlpha" type="matrix" values="0 0 0 0 0 0 0 0 0 0 0 0 0 0 0 0 0 0 127 0" result="hardAlpha"/>
<feOffset dy="4"/>
<feGaussianBlur stdDeviation="2"/>
<feComposite in2="hardAlpha" operator="out"/>
<feColorMatrix type="matrix" values="0 0 0 0 0.882353 0 0 0 0 0.113725 0 0 0 0 0.282353 0 0 0 0.3 0"/>
<feBlend mode="normal" in2="BackgroundImageFix" result="effect1_dropShadow_141_25"/>
<feBlend mode="normal" in="SourceGraphic" in2="effect1_dropShadow_141_25" result="shape"/>
</filter>
<clipPath id="clip0_141_25">
<rect width="828.082" height="580.278" fill="white"/>
</clipPath>
</defs>
</svg>
